# xmcd
#
# Track frame offsets:
#	150
#	15781
#	30639
#	48238
#	61950
#	74571
#	88994
#	102175
#	114865
#	132699
#	146011
#	160764
#	179624
#	193307
#
# Disc length: 2777 seconds
#
# Revision: 2
# Processed by: cddbd v1.5.1PL2 Copyright (c) Steve Scherf et al.
# Submitted via: audiograbber 1.83.01
#
DISCID=c60ad70e
DTITLE=Rita Chiarelli - No-One To Blame
DYEAR=2004
DGENRE=Blues
TTITLE0=Grits Ain't Groceries
TTITLE1=Lonely Avenue
TTITLE2=I Don't Know What You Got
TTITLE3=You Are My Sunshine
TTITLE4=Two Steps From The Blues
TTITLE5=Hey Memphis
TTITLE6=Nobody Knows You When You're Down And Out
TTITLE7=Drivin' Wheel
TTITLE8=Doggin' Around
TTITLE9=I Pity The Fool
TTITLE10=Why Are People Like That
TTITLE11=The Thrill Is Gone
TTITLE12=I'm In Love Again
TTITLE13=I'm So Lonesome I Could Cry
EXTD=Bluesfestradio.com
EXTT0=
EXTT1=
EXTT2=
EXTT3=
EXTT4=
EXTT5=
EXTT6=
EXTT7=
EXTT8=
EXTT9=
EXTT10=
EXTT11=
EXTT12=
EXTT13=
PLAYORDER=
